# xmcd CD database file
#
# Track frame offsets:
#	150
#	13802
#	42905
#	60733
#	92506
#	107445
#	122026
#	135183
#	170333
#	194825
#	220419
#	233617
#	246041
#	275643
#
# Disc length: 3855 seconds
#
# Revision: 6
# Processed by: cddbd v1.5.2PL0 Copyright (c) Steve Scherf et al.
# Submitted via: CDex 1.70beta2
#
DISCID=c00f0d0e
DTITLE=Various Artist - Simply Smooth Jazz 1
DYEAR=2004
DGENRE=Jazz
TTITLE0=Stan Getz - Sweet Miss
TTITLE1=Richard Groove Holmes - Moon River
TTITLE2=Astrud Gilberto - Hold Me
TTITLE3=Adderley Brothers - Caribbean Cutie
TTITLE4=Don Byas - Candy
TTITLE5=Ben Webster - Honeysuckle Rose
TTITLE6=Billy Eckstine - Prisoner Of Love
TTITLE7=Donald Byrd - Star Eyes
TTITLE8=Frak Wess and Kenny Burrell - Playboy
TTITLE9=Coleman Hawkins - I've Grown Accustomed To Her Face
TTITLE10=Dexter Gordon - Dexter's Deck
TTITLE11=Erroll Garner - Laura
TTITLE12=Milt Jackson - You Leave Me Breathless
TTITLE13=George Shearing - When Darkness Falls
EXTD=YEAR: 2004
EXTT0=
EXTT1=
EXTT2=
EXTT3=
EXTT4=
EXTT5=
EXTT6=
EXTT7=
EXTT8=
EXTT9=
EXTT10=
EXTT11=
EXTT12=
EXTT13=
PLAYORDER=
